<svg id="Layer_1" data-name="Layer 1" xmlns="http://www.w3.org/2000/svg" viewBox="0 0 1507.75 904.6"><defs><style>.cls-1{fill:#fff;}</style></defs><title>Artboard 1</title><path class="cls-1" d="M65.5,278.18q33.08,19.57,82.3,19.57a210.78,210.78,0,0,0,73.83-13.31q3.63-1.61,4.64-3t1.82-6.25l6.05-54.87c0-.81-.74-1.34-2.22-1.61s-2.36.14-2.62,1.21q-16.14,35.1-36.51,52.25t-46.2,17.15q-27.44,0-49-18T64.08,222.7Q52.18,192,52.18,154.92q0-49.62,21.79-79.08T135.7,46.4Q166,46.4,189,63.75T225.66,113q.4,1.62,2.42,1.21c1.34-.26,2-.81,2-1.61l-4.84-56.08a22.54,22.54,0,0,0-1.82-6.25q-1-1.82-4.64-3-10.89-4.84-30.26-7.87a240.6,240.6,0,0,0-37.12-3,172.58,172.58,0,0,0-74,16.14Q42.9,68.59,22.12,98T1.35,165.82a134.88,134.88,0,0,0,15.53,62.74Q32.41,258.61,65.5,278.18Zm237.63-43q-19,6.46-27.64,10.29T262.17,255q-4.64,5.65-4.64,14.93,0,12.51,7.46,19.16t20.37,6.66a70.55,70.55,0,0,0,20.17-3.43,138.46,138.46,0,0,0,21.79-8.67l18.56-10.09q2.42,10.5,8.27,16.54t11.9,6.05a9,9,0,0,0,4-.81l41.56-19.77a1.93,1.93,0,0,0,1-2.62,2.26,2.26,0,0,0-2.22-1.82H410a27.58,27.58,0,0,1-11.7,2.82,13.45,13.45,0,0,1-11.9-6.46q-4.24-6.45-4.24-18.16V177.92q0-21.79-11.9-33.08t-30.86-11.3q-14.52,0-33.89,6.86t-33.08,17.75Q258.74,169,258.74,179.94q0,16.55,19,16.54,21.38,0,23.8-22.59,1.21-16.54,6.86-23.8t15.33-7.26q10.89,0,15.73,11.5T344.27,190V221.9Zm41.56,31.87-5.24,2.82q-11.71,5.65-20.58,5.65a16.42,16.42,0,0,1-12.1-4.84q-4.84-4.84-4.84-13.31a16.29,16.29,0,0,1,4.64-11.7q4.63-4.84,15.53-8.88l22.19-8.07v29.86A64.72,64.72,0,0,0,344.68,267.08ZM410,33.49h.4q10.08-4.43,15.33-4.44,6.45,0,9.08,6.05t2.62,20.17l-.4,205q0,16.14-4.64,22t-17.15,5.85c-.54,0-.81.81-.81,2.42s.26,2.42.81,2.42q10.49,0,16.54-.4l24.21-.4,24.61.4q6.05.41,16.14.4c1.07,0,1.61-.81,1.61-2.42s-.54-2.42-1.61-2.42q-12.51,0-16.94-5.85t-4.44-22V5.65c0-1.07-.81-2.22-2.42-3.43A7.63,7.63,0,0,0,468.53.4l-1.61.4L407.61,28.65q-.81.41.2,2.62C408.48,32.75,409.22,33.49,410,33.49ZM553.65,93.2q11.29,0,17.35-6.46t6.05-18.16q0-10.89-6.05-16.94t-17.35-6.05q-11.3,0-18,6.25T529,68.59q0,11.71,6.46,18.16T553.65,93.2Zm-44.78,73.43h.4q9.68-4.43,14.93-4.44,6.45,0,9.28,6.05T536.3,188v72.22q0,16.14-4.44,22t-16.94,5.85q-1.21,0-1.21,2.42t1.21,2.42q10.49,0,16.54-.4l23.8-.4,24.21.4q6.05.41,16.54.4,1.21,0,1.21-2.42T596,288.06q-12.51,0-17.15-5.85t-4.64-22v-73q0-23.39.81-39.54v-8.88q0-1.61-2-3.63a5.83,5.83,0,0,0-4-2l-1.21.4-60.92,28.24c-.81.27-.95,1.15-.4,2.62S507.79,166.62,508.87,166.62Zm95.61-17.35q15.33,0,20.58,3.83t5.24,16.34v90.78q0,12.1-1.82,18a11.6,11.6,0,0,1-6.86,7.87q-5,2-15.53,2-1.62,0-1.61,2.42t1.61,2.42q11.7,0,18.16-.4l24.61-.4q18.16,0,27.43.4l27.84.4c1.07,0,1.61-.81,1.61-2.42s-.54-2.42-1.61-2.42q-16.14,0-23.6-2t-9.88-7.67q-2.42-5.65-2.42-18.16V151.7a225.67,225.67,0,0,1,43.17,6.05c.81.27,1.68-.87,2.62-3.43a22.62,22.62,0,0,0,1.41-7.87,25.9,25.9,0,0,0-.81-6.66c-.54-2-1.21-3-2-3q-31.88,3.23-44.38,3.63V115.79q0-54.86,10.69-80.69T708.17,9.28q8.87,0,12.91,4.24t7.67,12.71q3.63,8.47,8.07,12.91t14.12,4.44a21.66,21.66,0,0,0,14.32-5.24q6.25-5.24,6.25-14.52,0-11.29-12.51-17.55T723.9,0q-46.4,0-69.39,29.25t-25,95q-.41,10.09-5.65,13.92T604.48,142q-1.21,0-1.21,3.63T604.48,149.28Zm129.91,19.16Q721.07,186.8,721.07,213a91.49,91.49,0,0,0,10.09,42.56A77.28,77.28,0,0,0,760,286.65q18.76,11.5,43.77,11.5A95.13,95.13,0,0,0,848,287.66a83.24,83.24,0,0,0,32.48-29.25q12.1-18.76,12.1-43a88.1,88.1,0,0,0-9.88-41,78.56,78.56,0,0,0-28.44-30.86q-18.56-11.7-43.57-11.7A103.93,103.93,0,0,0,768.28,141,82.17,82.17,0,0,0,734.39,168.44Zm62.53-28q13.31,0,25,10.29t19,30.46q7.26,20.18,7.26,48.41,0,29-8.27,44.58t-24,15.53q-14.13,0-25.82-11.5T771.51,245.9q-6.87-20.77-6.86-47.81Q764.65,140.4,796.92,140.4Zm103.68,25.42q12.5-5.65,19.37-5.65a10,10,0,0,1,9.48,5.85q3,5.85,3,18.36v75.85q0,16.14-4.44,22t-16.94,5.85q-1.21,0-1.21,2.42t1.21,2.42q10.49,0,16.54-.4l23.8-.4,32.68.4q8.07.41,22.19.4c1.07,0,1.61-.81,1.61-2.42s-.54-2.42-1.61-2.42q-20.58,0-28.24-5.85t-7.67-22V173.48q9.68-9.68,14.32-12.71a16.08,16.08,0,0,1,8.67-3,10.72,10.72,0,0,1,6.25,1.82,39.09,39.09,0,0,1,6.25,5.85,34.7,34.7,0,0,0,7.87,7.26,18.24,18.24,0,0,0,9.88,2.42q8.47,0,13.72-5.45a18.08,18.08,0,0,0,3.58-5.4c.4,1,1,1.56,1.66,1.56h.81q12.5-5.65,19.37-5.65a10,10,0,0,1,9.48,5.85q3,5.85,3,18.36v75.85q0,16.14-4.44,22t-16.95,5.85q-1.21,0-1.21,2.42t1.21,2.42q10.49,0,16.54-.4l23.8-.4,24.21.4q6.05.41,16.54.4,1.21,0,1.21-2.42t-1.21-2.42q-12.51,0-17.15-5.85t-4.64-22V174.29a58.9,58.9,0,0,1,18-10.89,54.63,54.63,0,0,1,20-4q16.95,0,24.81,10.49t7.87,32.28v58.1q0,16.14-4.44,22t-16.94,5.85q-1.21,0-1.21,2.42t1.21,2.42q10.49,0,16.94-.4l23.4-.4,24.21.4q6.05.41,16.54.4,1.21,0,1.21-2.42t-1.21-2.42q-12.51,0-17.15-5.85t-4.64-22V182.76q0-22.59-12.71-36.51t-34.49-13.92q-33.49,0-61.32,33.08-.81-14.92-4.84-23.6t-8.47-8.67a17,17,0,0,0-2.82.81l-55,26.92a23.2,23.2,0,0,0,.57-5.13q0-9.28-8.67-15.94t-18-6.66q-8.08,0-18.76,6.86T970,163.8q-.81-14.12-4.64-22.39t-8.27-8.27a17,17,0,0,0-2.82.81l-56.08,27.43c-.54.27-.6,1.08-.2,2.42s1,2,1.82,2ZM1294.77,93.2q11.29,0,17.35-6.46t6.05-18.16q0-10.89-6.05-16.94t-17.35-6.05q-11.3,0-18,6.25t-6.66,16.74q0,11.71,6.46,18.16T1294.77,93.2ZM1250,166.62h.4q9.68-4.43,14.93-4.44,6.45,0,9.28,6.05t2.82,19.77v72.22q0,16.14-4.44,22T1256,288.06q-1.21,0-1.21,2.42t1.21,2.42q10.49,0,16.54-.4l23.8-.4,24.21.4q6.05.41,16.54.4,1.21,0,1.21-2.42t-1.21-2.42q-12.51,0-17.15-5.85t-4.64-22v-73q0-23.39.81-39.54v-8.88q0-1.61-2-3.63a5.83,5.83,0,0,0-4-2l-1.21.4L1248,161.78c-.81.27-.95,1.15-.4,2.62S1248.91,166.62,1250,166.62Zm257.6,106.31a2.26,2.26,0,0,0-2.22-1.82h-.4a27.58,27.58,0,0,1-11.7,2.82,13.45,13.45,0,0,1-11.9-6.46q-4.24-6.45-4.24-18.16V177.92q0-21.79-11.9-33.08t-30.86-11.3q-14.52,0-33.89,6.86t-33.08,17.75q-13.72,10.89-13.72,21.79,0,16.55,19,16.54,21.38,0,23.8-22.59,1.21-16.54,6.86-23.8t15.33-7.26q10.89,0,15.73,11.5T1439.2,190V221.9L1398,235.21q-19,6.46-27.64,10.29T1357.1,255q-4.64,5.65-4.64,14.93,0,12.51,7.46,19.16t20.37,6.66a70.55,70.55,0,0,0,20.17-3.43,138.46,138.46,0,0,0,21.79-8.67l18.56-10.09q2.42,10.5,8.27,16.54t11.9,6.05a9,9,0,0,0,4-.81l41.56-19.77A1.93,1.93,0,0,0,1507.58,272.93Zm-73.23-3q-11.71,5.65-20.58,5.65a16.42,16.42,0,0,1-12.1-4.84q-4.84-4.84-4.84-13.31a16.29,16.29,0,0,1,4.64-11.7q4.63-4.84,15.53-8.88l22.19-8.07v29.86a64.71,64.71,0,0,0,.4,8.47ZM105.13,467.33a53.06,53.06,0,0,1-13.67-1.61c-.54-.26-1,0-1.41.8a5.35,5.35,0,0,0-.6,2.41c0,1.34.26,2,.8,2a78.34,78.34,0,0,0,18.9,2,103.24,103.24,0,0,0,41.63-8.85A80.79,80.79,0,0,0,184,438q12.87-17.29,12.87-42.23,0-35.79-23.73-52.89t-64.75-17.09q-10.46,0-18.5.4t-13.27.8q-13.27,1.21-22.92,1.21-10.86,0-29.36-.8L3,327q-1.21,0-1.21,2.41T3,331.79q12.46,0,18.5,2.21a12.68,12.68,0,0,1,8,7.84q2,5.64,2,17.7V545.76q0,12.07-2,17.9a12.07,12.07,0,0,1-7.84,7.84q-5.83,2-18.7,2-1.21,0-1.21,2.41T3,578.33q13.67,0,21.72-.4l29.36-.4,35,.4q9.25.41,25.74.4,1.21,0,1.21-2.41t-1.21-2.41q-17.3,0-25.14-2.41T79,562.85q-2.82-5.83-2.82-18.7V360.35q0-15.28,4-20.51t15.28-5.23q25.73,0,39.21,17.29T148.17,401q0,31.78-12.27,49.07T105.13,467.33ZM339.8,425.7q-8.65-6.64-17.9-6.64-8.05,0-18.7,6.84t-27.15,23.73q-.81-14.07-4.63-22.32t-8.24-8.24a17,17,0,0,0-2.82.8l-55.9,27.35c-.54.27-.6,1.07-.2,2.41s1,2,1.81,2h.8q12.46-5.63,19.3-5.63a10,10,0,0,1,9.45,5.83q3,5.83,3,18.3v75.61q0,16.09-4.42,21.92t-16.89,5.83q-1.21,0-1.21,2.41t1.21,2.41q10.45,0,16.49-.4l23.73-.4,32.58.4q8,.41,22.12.4c1.07,0,1.61-.8,1.61-2.41s-.54-2.41-1.61-2.41q-20.51,0-28.15-5.83t-7.64-21.92V459.29q9.65-9.65,14.28-12.67a16,16,0,0,1,8.65-3,10.69,10.69,0,0,1,6.23,1.81,39,39,0,0,1,6.23,5.83,34.59,34.59,0,0,0,7.84,7.24,18.18,18.18,0,0,0,9.85,2.41q8.45,0,13.67-5.43a19.2,19.2,0,0,0,5.23-13.88Q348.45,432.34,339.8,425.7Zm50.07,146.8q18.49,10.65,43.84,10.66a85.24,85.24,0,0,0,33.38-6.43q15.28-6.43,30.16-20.91.8-.8-.2-2.41c-.67-1.07-1.28-1.61-1.81-1.61l-.8.4a68.2,68.2,0,0,1-19.71,8.45,83.19,83.19,0,0,1-20.91,2.82q-28.56,0-44.84-20.11t-16.29-54.7a108.77,108.77,0,0,1,1.21-16.89l72.39-.8h24.53q4.42,0,4.42-11.66,0-18.49-13.27-29.16t-38.21-10.66q-25.74,0-46.65,11.46a86.29,86.29,0,0,0-33,31.37,81.91,81.91,0,0,0-12.07,43.23,79.67,79.67,0,0,0,9.65,38.41A72,72,0,0,0,389.88,572.5ZM408,437.17q8.84-9.65,20.91-9.65,22.11,0,23.33,35l-57.11,1.21Q399.12,446.82,408,437.17Zm93.7,14.48h.8q12.46-5.63,19.3-5.63a10,10,0,0,1,9.45,5.83q3,5.83,3,18.3v75.61q0,16.09-4.42,21.92t-16.89,5.83q-1.21,0-1.21,2.41t1.21,2.41q10.45,0,16.49-.4l23.73-.4,24.13.4q6,.41,16.49.4,1.21,0,1.21-2.41t-1.21-2.41q-12.47,0-17.09-5.83t-4.63-21.92V459.69A53.08,53.08,0,0,1,588.75,449a50.61,50.61,0,0,1,19.1-3.82q15.28,0,22.72,10.46T638,487.84v57.91q0,16.09-4.63,21.92t-17.09,5.83q-1.21,0-1.21,2.41t1.21,2.41q10.45,0,16.89-.4l23.33-.4,24.13.4q6,.41,16.49.4c1.07,0,1.61-.8,1.61-2.41s-.54-2.41-1.61-2.41q-12.47,0-17.09-5.83t-4.63-21.92V461.7a53,53,0,0,1,17.29-12.07,50.48,50.48,0,0,1,20.51-4.42q15.28,0,22.72,10.46t7.44,32.17v57.91q0,16.09-4.63,21.92t-17.09,5.83q-1.21,0-1.21,2.41t1.21,2.41q10.45,0,16.89-.4l23.33-.4,24.13.4q6,.41,16.49.4c1.07,0,1.61-.8,1.61-2.41s-.54-2.41-1.61-2.41q-12.47,0-17.09-5.83t-4.63-21.92V468.54q0-25.34-11.46-37.81t-33.18-12.47q-33.78,0-61.53,35.79-2.41-17.29-13.67-26.54t-30.16-9.25q-31.37,0-58.72,32.58-.81-14.48-4.83-23.13t-8.45-8.65a17,17,0,0,0-2.82.8l-55.9,27.35c-.54.27-.6,1.07-.2,2.41S500.88,451.65,501.68,451.65ZM836.09,338q-6.64,6.24-6.64,16.69,0,11.67,6.43,18.1t18.1,6.43q11.25,0,17.29-6.43t6-18.1q0-10.86-6-16.89t-17.29-6Q842.73,331.79,836.09,338Zm60.13,235.48q-12.47,0-17.09-5.83t-4.63-21.92V473q0-23.32.8-39.41V424.7q0-1.6-2-3.62a5.81,5.81,0,0,0-4-2l-1.21.4-60.73,28.15c-.8.27-.94,1.14-.4,2.61s1.34,2.21,2.41,2.21h.4Q819.4,448,824.63,448q6.43,0,9.25,6t2.82,19.71v72q0,16.09-4.42,21.92t-16.89,5.83q-1.21,0-1.21,2.41t1.21,2.41q10.45,0,16.49-.4l23.73-.4,24.13.4q6,.41,16.49.4,1.21,0,1.21-2.41T896.22,573.51Zm199.88-21.32h-.8q-10.86,4.43-16.49,4.42a8.9,8.9,0,0,1-8.65-5.63q-2.62-5.63-2.61-19.3v-107c0-1.07-.74-2.21-2.21-3.42a6.81,6.81,0,0,0-4.22-1.81,4.53,4.53,0,0,0-2,.4l-53.89,25.74c-.8.27-.94,1.14-.4,2.61s1.21,2.21,2,2.21h.4q6-2.81,10.46-2.82,12.46,0,12.47,26.14v68.77a54.22,54.22,0,0,1-16.29,10.66A45.69,45.69,0,0,1,996,557q-33.39,0-33.38-43.44V424.7c0-1.07-.74-2.21-2.21-3.42a6.81,6.81,0,0,0-4.22-1.81l-2,.4-53.89,25.74c-.8.27-.94,1.14-.4,2.61s1.34,2.21,2.41,2.21h.4a23,23,0,0,1,10.05-2.82q12.46,0,12.47,26.14v59.12q0,22.53,12.67,36.4t34.79,13.88q31,0,57.51-31.37.4,14.88,3.42,23.53t7,8.65a4.55,4.55,0,0,0,2-.4l55.5-26.95c.8-.26.87-1.07.2-2.41S1096.9,552.19,1096.1,552.19Zm297.61,21.32q-12.47,0-17.09-5.83T1372,545.76V468.54q0-25.34-11.46-37.81t-33.18-12.47q-33.78,0-61.53,35.79-2.41-17.29-13.67-26.54T1222,418.26q-31.37,0-58.72,32.58-.81-14.48-4.83-23.13t-8.45-8.65a17,17,0,0,0-2.82.8l-55.9,27.35c-.54.27-.6,1.07-.2,2.41s1,2,1.81,2h.8Q1106.14,446,1113,446a10,10,0,0,1,9.45,5.83q3,5.83,3,18.3v75.61q0,16.09-4.42,21.92t-16.89,5.83q-1.21,0-1.21,2.41t1.21,2.41q10.45,0,16.49-.4l23.73-.4,24.13.4q6,.41,16.49.4,1.21,0,1.21-2.41t-1.21-2.41q-12.47,0-17.09-5.83t-4.62-21.92V459.69A53.08,53.08,0,0,1,1179.95,449a50.61,50.61,0,0,1,19.1-3.82q15.28,0,22.72,10.46t7.44,32.17v57.91q0,16.09-4.63,21.92t-17.09,5.83q-1.21,0-1.21,2.41t1.21,2.41q10.45,0,16.89-.4l23.33-.4,24.13.4q6,.41,16.49.4c1.07,0,1.61-.8,1.61-2.41s-.54-2.41-1.61-2.41q-12.47,0-17.09-5.83t-4.62-21.92V461.7a53,53,0,0,1,17.29-12.07,50.47,50.47,0,0,1,20.51-4.42q15.28,0,22.72,10.46t7.44,32.17v57.91q0,16.09-4.63,21.92t-17.09,5.83q-1.21,0-1.21,2.41t1.21,2.41q10.45,0,16.89-.4l23.33-.4,24.13.4q6,.41,16.49.4c1.07,0,1.61-.8,1.61-2.41S1394.78,573.51,1393.71,573.51ZM154.13,615.62q-26.11-13.3-59.69-13.3-6,0-23.28.67-14.3,1-27.93,1-9,0-24.28-.67L1.33,603q-1,0-1,2t1,2q10.3,0,15.13,1.83a11,11,0,0,1,6.65,6.48q1.82,4.66,1.83,14.63v154q0,10-1.83,14.8a10.46,10.46,0,0,1-6.82,6.48q-5,1.67-15.63,1.66c-.45,0-.67.67-.67,2s.22,2,.67,2q11.3,0,18-.33l24.61-.33q9.64,0,17.46.33t13.14.67q14.63,1,25.27,1a114.58,114.58,0,0,0,55-13.47A101.78,101.78,0,0,0,194,760.44q14.79-24.77,14.8-57,0-28.6-14.3-51.54T154.13,615.62Zm4.66,146q-9.15,21.29-25.44,32.09T95.77,804.5q-20,0-26.94-5.49t-7-18.79V630.58q0-13,7.65-17t28.27-4a56,56,0,0,1,36.91,13.3q16,13.3,24.61,36.41t8.65,51.38Q167.93,740.32,158.79,761.6Zm187,27.27-.67.33a56.39,56.39,0,0,1-16.29,7,68.79,68.79,0,0,1-17.29,2.33q-23.62,0-37.08-16.63T261,736.66a89.94,89.94,0,0,1,1-14L321.9,722h20.28q3.66,0,3.66-9.64,0-15.29-11-24.11t-31.59-8.81a78.91,78.91,0,0,0-38.57,9.48,71.35,71.35,0,0,0-27.27,25.94,67.73,67.73,0,0,0-10,35.75,65.87,65.87,0,0,0,8,31.76A59.52,59.52,0,0,0,258.71,806Q274,814.8,295,814.81a70.48,70.48,0,0,0,27.6-5.32q12.63-5.32,24.94-17.29.66-.66-.17-2C346.78,789.32,346.28,788.87,345.84,788.87ZM273.68,694.1q7.31-8,17.29-8,18.28,0,19.29,28.93L263,716Q266.36,702.08,273.68,694.1Zm158.46,47.05Q426,737,413.34,729.68q-13-7.65-19.79-14.63a23,23,0,0,1-6.82-16.63q0-13,13.63-13a32.47,32.47,0,0,1,17.46,5.32,48,48,0,0,1,13.8,12.8q5.32,7.48,5.32,13.8,0,1,2,1t2-1l.33-16.63q.33-4.65.33-13,0-2.66-3-3.66a68.7,68.7,0,0,0-13.8-4,86.75,86.75,0,0,0-13.8-1q-20.29,0-34.25,9.14T362.8,717q0,10.65,4.66,18a37.39,37.39,0,0,0,10.64,11.31q6,4,17.62,10.31,13.63,7.65,20.62,14.8t7,19.45q0,8.32-4.16,12.64T408,807.83q-12.64,0-24.94-11.64a65.76,65.76,0,0,1-17.62-28.27c-.22-.44-.95-.61-2.16-.5s-1.83.5-1.83,1.16l.67,32.92a5.75,5.75,0,0,0,2,4,70.58,70.58,0,0,0,34.58,9q15.63,0,26.94-6.15a41.91,41.91,0,0,0,17-16.13,42.5,42.5,0,0,0,5.65-21.28q0-10.64-5-18.12A41.7,41.7,0,0,0,432.13,741.15Zm64-134.18q-9.31,0-14.8,5.15t-5.49,13.8q0,9.65,5.32,15t15,5.32q9.31,0,14.3-5.32t5-15q0-9-5-14T496.14,607Zm34.92,199.86q-10.31,0-14.13-4.82t-3.82-18.12V723.69q0-19.28.67-32.59v-7.32a4.61,4.61,0,0,0-1.66-3,4.81,4.81,0,0,0-3.33-1.66l-1,.33-50.21,23.28c-.67.22-.78.95-.33,2.16s1.11,1.83,2,1.83h.33q8-3.66,12.3-3.66a7.9,7.9,0,0,1,7.65,5q2.32,5,2.33,16.29v59.53q0,13.3-3.66,18.12t-14,4.82q-1,0-1,2t1,2q8.64,0,13.63-.33l19.62-.33,20,.33q5,.34,13.63.33,1,0,1-2T531.05,806.83Zm310.25,0q-10.31,0-14.13-4.82t-3.82-18.12V720q0-18.62-10.47-30.1t-28.43-11.47q-27.61,0-50.55,27.27-.67-12.3-4-19.45t-7-7.15a14,14,0,0,0-2.33.67l-45.11,22.07a28.5,28.5,0,0,0,.89-3.11,45.5,45.5,0,0,0,1.33-10.31q0-9.31-2.66-9.31a56.54,56.54,0,0,0-18.62,3,77.86,77.86,0,0,0-17.62,9q-14.64-11-36.91-11a77.67,77.67,0,0,0-26.6,4.82,54.9,54.9,0,0,0-21.95,14.13,32,32,0,0,0-8.65,22.61,35.67,35.67,0,0,0,8,22.28q8,10.31,22.61,15.3-13.64,7.65-20.12,16.46t-6.48,17.13q0,9.65,5.49,15.3t15.46,8.65q-20,14.29-27.27,26.27T535,866.35q0,17,15.63,27.6t40.24,10.64A96.22,96.22,0,0,0,633,895.28q19.45-9.31,30.93-24.94t11.47-33.59q0-14.64-8.48-22.61a48.23,48.23,0,0,0-20.12-11.31,304.78,304.78,0,0,0-31.26-6.65q-14.64-2.66-22.61-4.66a38.55,38.55,0,0,1-13.47-6q-5.49-4-5.49-11.31a16.69,16.69,0,0,1,6.65-13.63,69.72,69.72,0,0,0,17,2,77.07,77.07,0,0,0,27.27-5,54.13,54.13,0,0,0,21.78-14.47A32.12,32.12,0,0,0,655.09,721a35.28,35.28,0,0,0-8.65-23.28h2.66q11,0,24.91,5.64a4.47,4.47,0,0,0,.19,1c.33,1.11.83,1.66,1.5,1.66h.66q10.3-4.65,16-4.66a8.25,8.25,0,0,1,7.81,4.82q2.49,4.82,2.49,15.13v62.52q0,13.3-3.66,18.12t-14,4.82q-1,0-1,2t1,2q8.64,0,13.63-.33l19.62-.33,20,.33q5,.34,13.63.33,1,0,1-2t-1-2q-10.31,0-14.13-4.82t-3.82-18.12V713.05a48.54,48.54,0,0,1,14.8-9,45,45,0,0,1,16.46-3.33q14,0,20.45,8.65t6.48,26.6v47.89q0,13.3-3.66,18.12t-14,4.82q-1,0-1,2t1,2q8.64,0,14-.33l19.29-.33,20,.33q5,.34,13.63.33,1,0,1-2T841.31,806.83Zm-264,12.3,18,3A243.8,243.8,0,0,1,623,827.61a40.24,40.24,0,0,1,17.29,9.64q7.15,6.81,7.15,19.45,0,17-10.81,27.1T608.53,894q-18,0-29.26-11.31T568,850.39Q568,830.1,577.27,819.13ZM617.68,750q-4.82,6.66-11.14,6.65-13,0-21.28-13.3t-8.31-30.59q0-26.27,14-26.27,13,0,22.28,12.3T622.5,729Q622.5,743.32,617.68,750Z"/></svg>